<svg width="2428" height="621" viewBox="0 0 2428 621" fill="none" xmlns="http://www.w3.org/2000/svg">
<path d="M631.743 222.839C632.517 222.389 633.471 222.387 634.247 222.833C635.022 223.279 635.5 224.105 635.5 225V388C635.5 388.89 635.026 389.714 634.257 390.161L321.257 572.161C320.483 572.611 319.529 572.613 318.753 572.167C317.978 571.721 317.5 570.895 317.5 570V407C317.5 406.11 317.974 405.286 318.743 404.839L631.743 222.839Z" fill="#ED5C61" stroke="#040F0F" stroke-width="5" stroke-linejoin="round"/>
<path d="M316.748 38.834C315.969 38.3849 315.009 38.3889 314.233 38.8447L3.73321 221.345C2.96994 221.793 2.50087 222.612 2.5 223.498C2.49913 224.383 2.9666 225.203 3.72899 225.653L316.229 410.153L316.231 410.154L391.731 454.654C392.508 455.112 393.471 455.116 394.252 454.664L511.752 386.664C512.517 386.221 512.991 385.408 513 384.525C513.009 383.641 512.55 382.819 511.795 382.361L441.867 340.024L634.273 226.151C635.038 225.699 635.505 224.874 635.5 223.986C635.495 223.097 635.018 222.278 634.248 221.834L316.748 38.834Z" fill="#F9C14A" stroke="#040F0F" stroke-width="5" stroke-linejoin="round"/>
<path d="M6.26573 222.844C5.49269 222.39 4.53583 222.385 3.75789 222.83C2.97994 223.276 2.5 224.104 2.5 225V388C2.5 388.887 2.96965 389.707 3.73427 390.156L391.234 617.656C392.007 618.11 392.964 618.115 393.742 617.67C394.52 617.224 395 616.396 395 615.5V452.5C395 451.613 394.53 450.793 393.766 450.344L6.26573 222.844Z" fill="#EB4067" stroke="#040F0F" stroke-width="5" stroke-linejoin="round"/>
<path d="M509.749 384.336C510.522 383.889 511.475 383.888 512.249 384.335C513.023 384.781 513.5 385.607 513.5 386.5V549.5C513.5 550.393 513.024 551.217 512.251 551.664L397.251 618.164C396.478 618.611 395.525 618.612 394.751 618.165C393.977 617.719 393.5 616.893 393.5 616V453C393.5 452.107 393.976 451.283 394.749 450.836L509.749 384.336Z" fill="#ED5C61" stroke="#040F0F" stroke-width="5" stroke-linejoin="round"/>
<path d="M242.5 185.5L335 132V300.5L305 318.5L224 271.5L304.5 224.5L242.5 185.5Z" fill="#ED5C61" stroke="black" stroke-width="5" stroke-linejoin="round"/>
<path d="M477 215.5L335 132V300.5L477 215.5Z" fill="#EB4067" stroke="black" stroke-width="5" stroke-linejoin="round"/>
<path d="M304.5 224.5V318" stroke="black" stroke-width="5" stroke-linejoin="round"/>
<path d="M1078.8 487.8C1066 491.267 1053.07 493 1040 493C1026.4 493 1013.2 491.533 1000.4 488.6C987.6 485.933 975.2 483 963.2 479.8C951.2 476.6 939.6 473.533 928.4 470.6C917.2 467.933 906.667 466.6 896.8 466.6C890.4 466.6 884.267 467.4 878.4 469V421.8C885.867 420.2 893.6 419.4 901.6 419.4C912.8 419.4 923.867 420.733 934.8 423.4C946 426.067 957.333 428.867 968.8 431.8C980.267 435 992 437.933 1004 440.6C1016 443.267 1028.67 444.6 1042 444.6C1047.87 444.6 1053.87 444.2 1060 443.4C1066.13 442.867 1072.4 441.8 1078.8 440.2V487.8ZM813.2 267C813.2 220.333 823.467 184.467 844 159.4C864.533 134.067 893.867 121.4 932 121.4C952 121.4 969.467 124.867 984.4 131.8C999.333 138.733 1011.73 148.6 1021.6 161.4C1031.47 174.2 1038.8 189.533 1043.6 207.4C1048.4 225.267 1050.8 245.133 1050.8 267C1050.8 313.667 1040.4 349.667 1019.6 375C999.067 400.067 969.867 412.6 932 412.6C911.733 412.6 894.133 409.133 879.2 402.2C864.267 395.267 851.867 385.4 842 372.6C832.4 359.8 825.2 344.467 820.4 326.6C815.6 308.733 813.2 288.867 813.2 267ZM870.8 267C870.8 281.133 872 294.2 874.4 306.2C876.8 317.933 880.4 328.067 885.2 336.6C890.267 345.133 896.667 351.8 904.4 356.6C912.133 361.4 921.333 363.8 932 363.8C951.467 363.8 966.533 356.2 977.2 341C987.867 325.8 993.2 301.133 993.2 267C993.2 253.4 992 240.733 989.6 229C987.467 217.267 984 207 979.2 198.2C974.4 189.4 968.133 182.6 960.4 177.8C952.667 172.733 943.2 170.2 932 170.2C912.533 170.2 897.467 178.067 886.8 193.8C876.133 209.267 870.8 233.667 870.8 267ZM1257.97 487H1205.97V389.8H1204.37C1199.84 396.733 1193.7 402.333 1185.97 406.6C1178.24 410.6 1168.24 412.6 1155.97 412.6C1131.17 412.6 1112.1 404.2 1098.77 387.4C1085.7 370.6 1079.17 345.133 1079.17 311C1079.17 275.267 1088.1 248.2 1105.97 229.8C1124.1 211.4 1149.97 202.2 1183.57 202.2C1190.77 202.2 1197.97 202.6 1205.17 203.4C1212.37 203.933 1219.17 204.867 1225.57 206.2C1232.24 207.267 1238.37 208.6 1243.97 210.2C1249.57 211.533 1254.24 212.867 1257.97 214.2V487ZM1169.97 368.6C1180.1 368.6 1187.84 366.333 1193.17 361.8C1198.77 357.267 1203.04 350.467 1205.97 341.4V251.4C1201.97 249.267 1197.44 247.933 1192.37 247.4C1187.3 246.6 1181.57 246.2 1175.17 246.2C1161.04 246.2 1150.37 251.533 1143.17 262.2C1136.24 272.867 1132.77 288.467 1132.77 309C1132.77 328.467 1135.97 343.267 1142.37 353.4C1148.77 363.533 1157.97 368.6 1169.97 368.6ZM1353.22 207V320.6C1353.22 336.867 1355.09 348.6 1358.82 355.8C1362.82 363 1370.42 366.6 1381.62 366.6C1391.49 366.6 1399.62 363.667 1406.02 357.8C1412.69 351.933 1417.62 344.733 1420.82 336.2V207H1472.82V346.2C1472.82 357.133 1473.36 367.933 1474.42 378.6C1475.49 389 1477.09 398.467 1479.22 407H1440.02L1430.82 377.4H1429.22C1423.09 387.533 1414.56 395.933 1403.62 402.6C1392.69 409.267 1379.76 412.6 1364.82 412.6C1354.69 412.6 1345.62 411.267 1337.62 408.6C1329.62 405.933 1322.96 401.533 1317.62 395.4C1312.29 389.267 1308.16 381 1305.22 370.6C1302.56 360.2 1301.22 347.133 1301.22 331.4V207H1353.22ZM1678.46 389.8C1670.46 396.2 1659.52 401.667 1645.66 406.2C1632.06 410.467 1617.52 412.6 1602.06 412.6C1569.79 412.6 1546.19 403.267 1531.26 384.6C1516.32 365.667 1508.86 339.8 1508.86 307C1508.86 271.8 1517.26 245.4 1534.06 227.8C1550.86 210.2 1574.46 201.4 1604.86 201.4C1614.99 201.4 1624.86 202.733 1634.46 205.4C1644.06 208.067 1652.59 212.467 1660.06 218.6C1667.52 224.733 1673.52 233 1678.06 243.4C1682.59 253.8 1684.86 266.733 1684.86 282.2C1684.86 287.8 1684.46 293.8 1683.66 300.2C1683.12 306.6 1682.19 313.267 1680.86 320.2H1560.86C1561.66 337 1565.92 349.667 1573.66 358.2C1581.66 366.733 1594.46 371 1612.06 371C1622.99 371 1632.72 369.4 1641.26 366.2C1650.06 362.733 1656.72 359.267 1661.26 355.8L1678.46 389.8ZM1604.06 243C1590.46 243 1580.32 247.133 1573.66 255.4C1567.26 263.4 1563.39 274.2 1562.06 287.8H1636.46C1637.52 273.4 1635.26 262.333 1629.66 254.6C1624.32 246.867 1615.79 243 1604.06 243ZM1804.38 351.8C1804.38 346.467 1802.11 342.2 1797.58 339C1793.05 335.8 1787.45 332.867 1780.78 330.2C1774.11 327.533 1766.78 324.867 1758.78 322.2C1750.78 319.267 1743.45 315.4 1736.78 310.6C1730.11 305.533 1724.51 299.267 1719.98 291.8C1715.45 284.067 1713.18 274.2 1713.18 262.2C1713.18 242.467 1719.05 227.4 1730.78 217C1742.51 206.6 1759.45 201.4 1781.58 201.4C1796.78 201.4 1810.51 203 1822.78 206.2C1835.05 209.4 1844.65 213 1851.58 217L1839.98 254.6C1833.85 252.2 1826.11 249.667 1816.78 247C1807.45 244.333 1797.98 243 1788.38 243C1772.91 243 1765.18 249 1765.18 261C1765.18 265.8 1767.45 269.667 1771.98 272.6C1776.51 275.533 1782.11 278.333 1788.78 281C1795.45 283.4 1802.78 286.067 1810.78 289C1818.78 291.933 1826.11 295.8 1832.78 300.6C1839.45 305.133 1845.05 311.133 1849.58 318.6C1854.11 326.067 1856.38 335.667 1856.38 347.4C1856.38 367.667 1849.85 383.667 1836.78 395.4C1823.98 406.867 1804.65 412.6 1778.78 412.6C1764.65 412.6 1751.31 410.733 1738.78 407C1726.51 403.533 1716.51 399.4 1708.78 394.6L1723.18 355.8C1729.31 359.267 1737.45 362.733 1747.58 366.2C1757.71 369.4 1768.11 371 1778.78 371C1786.51 371 1792.65 369.533 1797.18 366.6C1801.98 363.667 1804.38 358.733 1804.38 351.8ZM1869.53 207H1897.13V169.4L1949.13 154.6V207H1997.93V251H1949.13V327.8C1949.13 341.667 1950.46 351.667 1953.13 357.8C1956.06 363.667 1961.4 366.6 1969.13 366.6C1974.46 366.6 1979 366.067 1982.73 365C1986.73 363.933 1991.13 362.333 1995.93 360.2L2005.13 400.2C1997.93 403.667 1989.53 406.6 1979.93 409C1970.33 411.4 1960.6 412.6 1950.73 412.6C1932.33 412.6 1918.73 407.933 1909.93 398.6C1901.4 389 1897.13 373.4 1897.13 351.8V251H1869.53V207ZM2023.78 380.6C2023.78 371.267 2026.72 363.933 2032.58 358.6C2038.45 353 2046.18 350.2 2055.78 350.2C2065.92 350.2 2073.92 353 2079.78 358.6C2085.65 363.933 2088.58 371.267 2088.58 380.6C2088.58 389.933 2085.65 397.4 2079.78 403C2073.92 408.6 2065.92 411.4 2055.78 411.4C2046.18 411.4 2038.45 408.6 2032.58 403C2026.72 397.4 2023.78 389.933 2023.78 380.6ZM2132.62 207H2184.62V407H2132.62V207ZM2125.02 150.6C2125.02 142.867 2127.82 136.333 2133.42 131C2139.29 125.4 2147.29 122.6 2157.42 122.6C2167.56 122.6 2175.69 125.4 2181.82 131C2188.22 136.333 2191.42 142.867 2191.42 150.6C2191.42 158.333 2188.22 164.867 2181.82 170.2C2175.69 175.267 2167.56 177.8 2157.42 177.8C2147.29 177.8 2139.29 175.267 2133.42 170.2C2127.82 164.867 2125.02 158.333 2125.02 150.6ZM2226.04 307C2226.04 273.133 2234.31 247.133 2250.84 229C2267.38 210.6 2290.58 201.4 2320.44 201.4C2336.44 201.4 2350.31 203.933 2362.04 209C2373.78 214.067 2383.51 221.267 2391.24 230.6C2398.98 239.667 2404.71 250.733 2408.44 263.8C2412.44 276.867 2414.44 291.267 2414.44 307C2414.44 340.867 2406.18 367 2389.64 385.4C2373.38 403.533 2350.31 412.6 2320.44 412.6C2304.44 412.6 2290.58 410.067 2278.84 405C2267.11 399.933 2257.24 392.867 2249.24 383.8C2241.51 374.467 2235.64 363.267 2231.64 350.2C2227.91 337.133 2226.04 322.733 2226.04 307ZM2279.64 307C2279.64 315.8 2280.44 323.933 2282.04 331.4C2283.64 338.867 2286.04 345.4 2289.24 351C2292.44 356.6 2296.58 361 2301.64 364.2C2306.98 367.133 2313.24 368.6 2320.44 368.6C2334.04 368.6 2344.18 363.667 2350.84 353.8C2357.51 343.933 2360.84 328.333 2360.84 307C2360.84 288.6 2357.78 273.8 2351.64 262.6C2345.51 251.133 2335.11 245.4 2320.44 245.4C2307.64 245.4 2297.64 250.2 2290.44 259.8C2283.24 269.4 2279.64 285.133 2279.64 307Z" fill="black"/>
</svg>
